solid bin_small
 facet normal -1.000000 0.000000 0.000000
  outer loop
   vertex -0.300000 0.065000 0.100000
   vertex -0.300000 0.080000 0.100000
   vertex -0.300000 0.065000 0.010000
  endloop
 endfacet
 facet normal -1.000000 0.000000 0.000000
  outer loop
   vertex -0.300000 0.065000 0.010000
   vertex -0.300000 0.080000 0.100000
   vertex -0.300000 0.080000 0.000000
  endloop
 endfacet
 facet normal -1.000000 0.000000 0.000000
  outer loop
   vertex -0.300000 0.065000 0.010000
   vertex -0.300000 0.080000 0.000000
   vertex -0.300000 -0.065000 0.010000
  endloop
 endfacet
 facet normal -1.000000 0.000000 0.000000
  outer loop
   vertex -0.300000 -0.065000 0.010000
   vertex -0.300000 0.080000 0.000000
   vertex -0.300000 -0.080000 0.000000
  endloop
 endfacet
 facet normal -1.000000 0.000000 0.000000
  outer loop
   vertex -0.300000 -0.065000 0.010000
   vertex -0.300000 -0.080000 0.000000
   vertex -0.300000 -0.065000 0.100000
  endloop
 endfacet
 facet normal -1.000000 0.000000 0.000000
  outer loop
   vertex -0.300000 -0.065000 0.100000
   vertex -0.300000 -0.080000 0.000000
   vertex -0.300000 -0.080000 0.100000
  endloop
 endfacet
 facet normal 0.000000 -1.000000 0.000000
  outer loop
   vertex 0.000000 -0.080000 0.100000
   vertex -0.300000 -0.080000 0.100000
   vertex 0.000000 -0.080000 0.000000
  endloop
 endfacet
 facet normal 0.000000 -1.000000 0.000000
  outer loop
   vertex 0.000000 -0.080000 0.000000
   vertex -0.300000 -0.080000 0.100000
   vertex -0.300000 -0.080000 0.000000
  endloop
 endfacet
 facet normal 1.000000 0.000000 0.000000
  outer loop
   vertex 0.000000 0.080000 0.100000
   vertex 0.000000 -0.080000 0.100000
   vertex 0.000000 0.080000 0.000000
  endloop
 endfacet
 facet normal 1.000000 0.000000 0.000000
  outer loop
   vertex 0.000000 0.080000 0.000000
   vertex 0.000000 -0.080000 0.100000
   vertex 0.000000 -0.080000 0.000000
  endloop
 endfacet
 facet normal 0.000000 1.000000 0.000000
  outer loop
   vertex -0.300000 0.080000 0.100000
   vertex 0.000000 0.080000 0.100000
   vertex -0.300000 0.080000 0.000000
  endloop
 endfacet
 facet normal 0.000000 1.000000 0.000000
  outer loop
   vertex -0.300000 0.080000 0.000000
   vertex 0.000000 0.080000 0.100000
   vertex 0.000000 0.080000 0.000000
  endloop
 endfacet
 facet normal 0.000000 0.000000 1.000000
  outer loop
   vertex -0.300000 -0.065000 0.100000
   vertex -0.300000 -0.080000 0.100000
   vertex -0.015000 -0.065000 0.100000
  endloop
 endfacet
 facet normal 0.000000 0.000000 1.000000
  outer loop
   vertex -0.015000 -0.065000 0.100000
   vertex -0.300000 -0.080000 0.100000
   vertex 0.000000 -0.080000 0.100000
  endloop
 endfacet
 facet normal 0.000000 0.000000 1.000000
  outer loop
   vertex -0.015000 -0.065000 0.100000
   vertex 0.000000 -0.080000 0.100000
   vertex -0.015000 0.065000 0.100000
  endloop
 endfacet
 facet normal 0.000000 0.000000 1.000000
  outer loop
   vertex -0.015000 0.065000 0.100000
   vertex 0.000000 -0.080000 0.100000
   vertex 0.000000 0.080000 0.100000
  endloop
 endfacet
 facet normal 0.000000 0.000000 1.000000
  outer loop
   vertex -0.015000 0.065000 0.100000
   vertex 0.000000 0.080000 0.100000
   vertex -0.300000 0.065000 0.100000
  endloop
 endfacet
 facet normal 0.000000 0.000000 1.000000
  outer loop
   vertex -0.300000 0.065000 0.100000
   vertex 0.000000 0.080000 0.100000
   vertex -0.300000 0.080000 0.100000
  endloop
 endfacet
 facet normal 0.000000 0.000000 -1.000000
  outer loop
   vertex 0.000000 0.080000 0.000000
   vertex 0.000000 -0.080000 0.000000
   vertex -0.300000 0.080000 0.000000
  endloop
 endfacet
 facet normal 0.000000 0.000000 -1.000000
  outer loop
   vertex -0.300000 0.080000 0.000000
   vertex 0.000000 -0.080000 0.000000
   vertex -0.300000 -0.080000 0.000000
  endloop
 endfacet
 facet normal 0.000000 0.000000 1.000000
  outer loop
   vertex -0.015000 -0.065000 0.010000
   vertex -0.015000 0.065000 0.010000
   vertex -0.300000 -0.065000 0.010000
  endloop
 endfacet
 facet normal 0.000000 0.000000 1.000000
  outer loop
   vertex -0.300000 -0.065000 0.010000
   vertex -0.015000 0.065000 0.010000
   vertex -0.300000 0.065000 0.010000
  endloop
 endfacet
 facet normal 0.000000 1.000000 0.000000
  outer loop
   vertex -0.015000 -0.065000 0.100000
   vertex -0.015000 -0.065000 0.010000
   vertex -0.300000 -0.065000 0.100000
  endloop
 endfacet
 facet normal 0.000000 1.000000 0.000000
  outer loop
   vertex -0.300000 -0.065000 0.100000
   vertex -0.015000 -0.065000 0.010000
   vertex -0.300000 -0.065000 0.010000
  endloop
 endfacet
 facet normal -1.000000 0.000000 0.000000
  outer loop
   vertex -0.015000 0.065000 0.100000
   vertex -0.015000 0.065000 0.010000
   vertex -0.015000 -0.065000 0.100000
  endloop
 endfacet
 facet normal -1.000000 0.000000 0.000000
  outer loop
   vertex -0.015000 -0.065000 0.100000
   vertex -0.015000 0.065000 0.010000
   vertex -0.015000 -0.065000 0.010000
  endloop
 endfacet
 facet normal 0.000000 -1.000000 0.000000
  outer loop
   vertex -0.300000 0.065000 0.100000
   vertex -0.300000 0.065000 0.010000
   vertex -0.015000 0.065000 0.100000
  endloop
 endfacet
 facet normal 0.000000 -1.000000 0.000000
  outer loop
   vertex -0.015000 0.065000 0.100000
   vertex -0.300000 0.065000 0.010000
   vertex -0.015000 0.065000 0.010000
  endloop
 endfacet
endsolid bin_small
