solid bin_small_new_ascii - bin_small_new_ascii
 facet normal -1.000000 0.000000 0.000000
  outer loop
   vertex -0.280000 0.054700 0.127000
   vertex -0.280000 0.069700 0.127000
   vertex -0.280000 0.054700 0.025400
  endloop
 endfacet
 facet normal -1.000000 0.000000 0.000000
  outer loop
   vertex -0.280000 0.054700 0.025400
   vertex -0.280000 0.069700 0.127000
   vertex -0.280000 0.069700 0.000000
  endloop
 endfacet
 facet normal -1.000000 0.000000 0.000000
  outer loop
   vertex -0.280000 0.054700 0.025400
   vertex -0.280000 0.069700 0.000000
   vertex -0.280000 -0.055000 0.025400
  endloop
 endfacet
 facet normal -1.000000 0.000000 0.000000
  outer loop
   vertex -0.280000 -0.055000 0.025400
   vertex -0.280000 0.069700 0.000000
   vertex -0.280000 -0.070000 0.000000
  endloop
 endfacet
 facet normal -1.000000 0.000000 0.000000
  outer loop
   vertex -0.280000 -0.055000 0.025400
   vertex -0.280000 -0.070000 0.000000
   vertex -0.280000 -0.055000 0.127000
  endloop
 endfacet
 facet normal -1.000000 0.000000 0.000000
  outer loop
   vertex -0.280000 -0.055000 0.127000
   vertex -0.280000 -0.070000 0.000000
   vertex -0.280000 -0.070000 0.127000
  endloop
 endfacet
 facet normal 0.000000 -1.000000 0.000000
  outer loop
   vertex -0.003775 -0.070000 0.127000
   vertex -0.280000 -0.070000 0.127000
   vertex -0.003775 -0.070000 0.000000
  endloop
 endfacet
 facet normal 0.000000 -1.000000 0.000000
  outer loop
   vertex -0.003775 -0.070000 0.000000
   vertex -0.280000 -0.070000 0.127000
   vertex -0.280000 -0.070000 0.000000
  endloop
 endfacet
 facet normal 1.000000 0.000000 0.000000
  outer loop
   vertex -0.003775 0.069700 0.127000
   vertex -0.003775 -0.070000 0.127000
   vertex -0.003775 0.069700 0.000000
  endloop
 endfacet
 facet normal 1.000000 0.000000 0.000000
  outer loop
   vertex -0.003775 0.069700 0.000000
   vertex -0.003775 -0.070000 0.127000
   vertex -0.003775 -0.070000 0.000000
  endloop
 endfacet
 facet normal 0.000000 1.000000 0.000000
  outer loop
   vertex -0.280000 0.069700 0.127000
   vertex -0.003775 0.069700 0.127000
   vertex -0.280000 0.069700 0.000000
  endloop
 endfacet
 facet normal 0.000000 1.000000 0.000000
  outer loop
   vertex -0.280000 0.069700 0.000000
   vertex -0.003775 0.069700 0.127000
   vertex -0.003775 0.069700 0.000000
  endloop
 endfacet
 facet normal 0.000000 0.000000 1.000000
  outer loop
   vertex -0.280000 -0.055000 0.127000
   vertex -0.280000 -0.070000 0.127000
   vertex -0.018775 -0.055000 0.127000
  endloop
 endfacet
 facet normal 0.000000 0.000000 1.000000
  outer loop
   vertex -0.018775 -0.055000 0.127000
   vertex -0.280000 -0.070000 0.127000
   vertex -0.003775 -0.070000 0.127000
  endloop
 endfacet
 facet normal 0.000000 0.000000 1.000000
  outer loop
   vertex -0.018775 -0.055000 0.127000
   vertex -0.003775 -0.070000 0.127000
   vertex -0.018775 0.054700 0.127000
  endloop
 endfacet
 facet normal 0.000000 0.000000 1.000000
  outer loop
   vertex -0.018775 0.054700 0.127000
   vertex -0.003775 -0.070000 0.127000
   vertex -0.003775 0.069700 0.127000
  endloop
 endfacet
 facet normal 0.000000 0.000000 1.000000
  outer loop
   vertex -0.018775 0.054700 0.127000
   vertex -0.003775 0.069700 0.127000
   vertex -0.280000 0.054700 0.127000
  endloop
 endfacet
 facet normal 0.000000 0.000000 1.000000
  outer loop
   vertex -0.280000 0.054700 0.127000
   vertex -0.003775 0.069700 0.127000
   vertex -0.280000 0.069700 0.127000
  endloop
 endfacet
 facet normal 0.000000 0.000000 -1.000000
  outer loop
   vertex -0.003775 0.069700 0.000000
   vertex -0.003775 -0.070000 0.000000
   vertex -0.280000 0.069700 0.000000
  endloop
 endfacet
 facet normal 0.000000 0.000000 -1.000000
  outer loop
   vertex -0.280000 0.069700 0.000000
   vertex -0.003775 -0.070000 0.000000
   vertex -0.280000 -0.070000 0.000000
  endloop
 endfacet
 facet normal 0.000000 0.000000 1.000000
  outer loop
   vertex -0.018775 -0.055000 0.025400
   vertex -0.018775 0.054700 0.025400
   vertex -0.280000 -0.055000 0.025400
  endloop
 endfacet
 facet normal 0.000000 0.000000 1.000000
  outer loop
   vertex -0.280000 -0.055000 0.025400
   vertex -0.018775 0.054700 0.025400
   vertex -0.280000 0.054700 0.025400
  endloop
 endfacet
 facet normal 0.000000 1.000000 0.000000
  outer loop
   vertex -0.018775 -0.055000 0.127000
   vertex -0.018775 -0.055000 0.025400
   vertex -0.280000 -0.055000 0.127000
  endloop
 endfacet
 facet normal 0.000000 1.000000 0.000000
  outer loop
   vertex -0.280000 -0.055000 0.127000
   vertex -0.018775 -0.055000 0.025400
   vertex -0.280000 -0.055000 0.025400
  endloop
 endfacet
 facet normal -1.000000 0.000000 0.000000
  outer loop
   vertex -0.018775 0.054700 0.127000
   vertex -0.018775 0.054700 0.025400
   vertex -0.018775 -0.055000 0.127000
  endloop
 endfacet
 facet normal -1.000000 0.000000 0.000000
  outer loop
   vertex -0.018775 -0.055000 0.127000
   vertex -0.018775 0.054700 0.025400
   vertex -0.018775 -0.055000 0.025400
  endloop
 endfacet
 facet normal 0.000000 -1.000000 0.000000
  outer loop
   vertex -0.280000 0.054700 0.127000
   vertex -0.280000 0.054700 0.025400
   vertex -0.018775 0.054700 0.127000
  endloop
 endfacet
 facet normal 0.000000 -1.000000 0.000000
  outer loop
   vertex -0.018775 0.054700 0.127000
   vertex -0.280000 0.054700 0.025400
   vertex -0.018775 0.054700 0.025400
  endloop
 endfacet
endsolid bin_small_new_ascii - bin_small_new_ascii
