solid bin_large
 facet normal -1.000000 0.000000 0.000000
  outer loop
   vertex -0.350000 0.090000 0.180000
   vertex -0.350000 0.105000 0.180000
   vertex -0.350000 0.090000 0.020000
  endloop
 endfacet
 facet normal -1.000000 0.000000 0.000000
  outer loop
   vertex -0.350000 0.090000 0.020000
   vertex -0.350000 0.105000 0.180000
   vertex -0.350000 0.105000 0.000000
  endloop
 endfacet
 facet normal -1.000000 0.000000 0.000000
  outer loop
   vertex -0.350000 0.090000 0.020000
   vertex -0.350000 0.105000 0.000000
   vertex -0.350000 -0.090000 0.020000
  endloop
 endfacet
 facet normal -1.000000 0.000000 0.000000
  outer loop
   vertex -0.350000 -0.090000 0.020000
   vertex -0.350000 0.105000 0.000000
   vertex -0.350000 -0.105000 0.000000
  endloop
 endfacet
 facet normal -1.000000 0.000000 0.000000
  outer loop
   vertex -0.350000 -0.090000 0.020000
   vertex -0.350000 -0.105000 0.000000
   vertex -0.350000 -0.090000 0.180000
  endloop
 endfacet
 facet normal -1.000000 0.000000 0.000000
  outer loop
   vertex -0.350000 -0.090000 0.180000
   vertex -0.350000 -0.105000 0.000000
   vertex -0.350000 -0.105000 0.180000
  endloop
 endfacet
 facet normal 0.000000 -1.000000 0.000000
  outer loop
   vertex 0.000000 -0.105000 0.180000
   vertex -0.350000 -0.105000 0.180000
   vertex 0.000000 -0.105000 0.000000
  endloop
 endfacet
 facet normal 0.000000 -1.000000 0.000000
  outer loop
   vertex 0.000000 -0.105000 0.000000
   vertex -0.350000 -0.105000 0.180000
   vertex -0.350000 -0.105000 0.000000
  endloop
 endfacet
 facet normal 1.000000 0.000000 0.000000
  outer loop
   vertex 0.000000 0.105000 0.180000
   vertex 0.000000 -0.105000 0.180000
   vertex 0.000000 0.105000 0.000000
  endloop
 endfacet
 facet normal 1.000000 0.000000 0.000000
  outer loop
   vertex 0.000000 0.105000 0.000000
   vertex 0.000000 -0.105000 0.180000
   vertex 0.000000 -0.105000 0.000000
  endloop
 endfacet
 facet normal 0.000000 1.000000 0.000000
  outer loop
   vertex -0.350000 0.105000 0.180000
   vertex 0.000000 0.105000 0.180000
   vertex -0.350000 0.105000 0.000000
  endloop
 endfacet
 facet normal 0.000000 1.000000 0.000000
  outer loop
   vertex -0.350000 0.105000 0.000000
   vertex 0.000000 0.105000 0.180000
   vertex 0.000000 0.105000 0.000000
  endloop
 endfacet
 facet normal 0.000000 0.000000 1.000000
  outer loop
   vertex -0.350000 -0.090000 0.180000
   vertex -0.350000 -0.105000 0.180000
   vertex -0.015000 -0.090000 0.180000
  endloop
 endfacet
 facet normal 0.000000 0.000000 1.000000
  outer loop
   vertex -0.015000 -0.090000 0.180000
   vertex -0.350000 -0.105000 0.180000
   vertex 0.000000 -0.105000 0.180000
  endloop
 endfacet
 facet normal 0.000000 0.000000 1.000000
  outer loop
   vertex -0.015000 -0.090000 0.180000
   vertex 0.000000 -0.105000 0.180000
   vertex -0.015000 0.090000 0.180000
  endloop
 endfacet
 facet normal 0.000000 0.000000 1.000000
  outer loop
   vertex -0.015000 0.090000 0.180000
   vertex 0.000000 -0.105000 0.180000
   vertex 0.000000 0.105000 0.180000
  endloop
 endfacet
 facet normal 0.000000 0.000000 1.000000
  outer loop
   vertex -0.015000 0.090000 0.180000
   vertex 0.000000 0.105000 0.180000
   vertex -0.350000 0.090000 0.180000
  endloop
 endfacet
 facet normal 0.000000 0.000000 1.000000
  outer loop
   vertex -0.350000 0.090000 0.180000
   vertex 0.000000 0.105000 0.180000
   vertex -0.350000 0.105000 0.180000
  endloop
 endfacet
 facet normal 0.000000 0.000000 -1.000000
  outer loop
   vertex 0.000000 0.105000 0.000000
   vertex 0.000000 -0.105000 0.000000
   vertex -0.350000 0.105000 0.000000
  endloop
 endfacet
 facet normal 0.000000 0.000000 -1.000000
  outer loop
   vertex -0.350000 0.105000 0.000000
   vertex 0.000000 -0.105000 0.000000
   vertex -0.350000 -0.105000 0.000000
  endloop
 endfacet
 facet normal 0.000000 0.000000 1.000000
  outer loop
   vertex -0.015000 -0.090000 0.020000
   vertex -0.015000 0.090000 0.020000
   vertex -0.350000 -0.090000 0.020000
  endloop
 endfacet
 facet normal 0.000000 0.000000 1.000000
  outer loop
   vertex -0.350000 -0.090000 0.020000
   vertex -0.015000 0.090000 0.020000
   vertex -0.350000 0.090000 0.020000
  endloop
 endfacet
 facet normal 0.000000 1.000000 0.000000
  outer loop
   vertex -0.015000 -0.090000 0.180000
   vertex -0.015000 -0.090000 0.020000
   vertex -0.350000 -0.090000 0.180000
  endloop
 endfacet
 facet normal 0.000000 1.000000 0.000000
  outer loop
   vertex -0.350000 -0.090000 0.180000
   vertex -0.015000 -0.090000 0.020000
   vertex -0.350000 -0.090000 0.020000
  endloop
 endfacet
 facet normal -1.000000 0.000000 0.000000
  outer loop
   vertex -0.015000 0.090000 0.180000
   vertex -0.015000 0.090000 0.020000
   vertex -0.015000 -0.090000 0.180000
  endloop
 endfacet
 facet normal -1.000000 0.000000 0.000000
  outer loop
   vertex -0.015000 -0.090000 0.180000
   vertex -0.015000 0.090000 0.020000
   vertex -0.015000 -0.090000 0.020000
  endloop
 endfacet
 facet normal 0.000000 -1.000000 0.000000
  outer loop
   vertex -0.350000 0.090000 0.180000
   vertex -0.350000 0.090000 0.020000
   vertex -0.015000 0.090000 0.180000
  endloop
 endfacet
 facet normal 0.000000 -1.000000 0.000000
  outer loop
   vertex -0.015000 0.090000 0.180000
   vertex -0.350000 0.090000 0.020000
   vertex -0.015000 0.090000 0.020000
  endloop
 endfacet
endsolid bin_large
