solid bin_large_new_ascii - bin_large_new
 facet normal -1.000000 0.000000 0.000000
  outer loop
   vertex -0.370000 0.089550 0.177800
   vertex -0.370000 0.104550 0.177800
   vertex -0.370000 0.089550 0.025400
  endloop
 endfacet
 facet normal -1.000000 0.000000 0.000000
  outer loop
   vertex -0.370000 0.089550 0.025400
   vertex -0.370000 0.104550 0.177800
   vertex -0.370000 0.104550 0.000000
  endloop
 endfacet
 facet normal -1.000000 0.000000 0.000000
  outer loop
   vertex -0.370000 0.089550 0.025400
   vertex -0.370000 0.104550 0.000000
   vertex -0.370000 -0.090000 0.025400
  endloop
 endfacet
 facet normal -1.000000 0.000000 0.000000
  outer loop
   vertex -0.370000 -0.090000 0.025400
   vertex -0.370000 0.104550 0.000000
   vertex -0.370000 -0.105000 0.000000
  endloop
 endfacet
 facet normal -1.000000 0.000000 0.000000
  outer loop
   vertex -0.370000 -0.090000 0.025400
   vertex -0.370000 -0.105000 0.000000
   vertex -0.370000 -0.090000 0.177800
  endloop
 endfacet
 facet normal -1.000000 0.000000 0.000000
  outer loop
   vertex -0.370000 -0.090000 0.177800
   vertex -0.370000 -0.105000 0.000000
   vertex -0.370000 -0.105000 0.177800
  endloop
 endfacet
 facet normal 0.000000 -1.000000 0.000000
  outer loop
   vertex 0.004650 -0.105000 0.177800
   vertex -0.370000 -0.105000 0.177800
   vertex 0.004650 -0.105000 0.000000
  endloop
 endfacet
 facet normal 0.000000 -1.000000 0.000000
  outer loop
   vertex 0.004650 -0.105000 0.000000
   vertex -0.370000 -0.105000 0.177800
   vertex -0.370000 -0.105000 0.000000
  endloop
 endfacet
 facet normal 1.000000 0.000000 0.000000
  outer loop
   vertex 0.004650 0.104550 0.177800
   vertex 0.004650 -0.105000 0.177800
   vertex 0.004650 0.104550 0.000000
  endloop
 endfacet
 facet normal 1.000000 0.000000 0.000000
  outer loop
   vertex 0.004650 0.104550 0.000000
   vertex 0.004650 -0.105000 0.177800
   vertex 0.004650 -0.105000 0.000000
  endloop
 endfacet
 facet normal 0.000000 1.000000 0.000000
  outer loop
   vertex -0.370000 0.104550 0.177800
   vertex 0.004650 0.104550 0.177800
   vertex -0.370000 0.104550 0.000000
  endloop
 endfacet
 facet normal 0.000000 1.000000 0.000000
  outer loop
   vertex -0.370000 0.104550 0.000000
   vertex 0.004650 0.104550 0.177800
   vertex 0.004650 0.104550 0.000000
  endloop
 endfacet
 facet normal 0.000000 0.000000 1.000000
  outer loop
   vertex -0.370000 -0.090000 0.177800
   vertex -0.370000 -0.105000 0.177800
   vertex -0.010350 -0.090000 0.177800
  endloop
 endfacet
 facet normal 0.000000 0.000000 1.000000
  outer loop
   vertex -0.010350 -0.090000 0.177800
   vertex -0.370000 -0.105000 0.177800
   vertex 0.004650 -0.105000 0.177800
  endloop
 endfacet
 facet normal 0.000000 0.000000 1.000000
  outer loop
   vertex -0.010350 -0.090000 0.177800
   vertex 0.004650 -0.105000 0.177800
   vertex -0.010350 0.089550 0.177800
  endloop
 endfacet
 facet normal 0.000000 0.000000 1.000000
  outer loop
   vertex -0.010350 0.089550 0.177800
   vertex 0.004650 -0.105000 0.177800
   vertex 0.004650 0.104550 0.177800
  endloop
 endfacet
 facet normal 0.000000 0.000000 1.000000
  outer loop
   vertex -0.010350 0.089550 0.177800
   vertex 0.004650 0.104550 0.177800
   vertex -0.370000 0.089550 0.177800
  endloop
 endfacet
 facet normal 0.000000 0.000000 1.000000
  outer loop
   vertex -0.370000 0.089550 0.177800
   vertex 0.004650 0.104550 0.177800
   vertex -0.370000 0.104550 0.177800
  endloop
 endfacet
 facet normal 0.000000 0.000000 -1.000000
  outer loop
   vertex 0.004650 0.104550 0.000000
   vertex 0.004650 -0.105000 0.000000
   vertex -0.370000 0.104550 0.000000
  endloop
 endfacet
 facet normal 0.000000 0.000000 -1.000000
  outer loop
   vertex -0.370000 0.104550 0.000000
   vertex 0.004650 -0.105000 0.000000
   vertex -0.370000 -0.105000 0.000000
  endloop
 endfacet
 facet normal 0.000000 0.000000 1.000000
  outer loop
   vertex -0.010350 -0.090000 0.025400
   vertex -0.010350 0.089550 0.025400
   vertex -0.370000 -0.090000 0.025400
  endloop
 endfacet
 facet normal 0.000000 0.000000 1.000000
  outer loop
   vertex -0.370000 -0.090000 0.025400
   vertex -0.010350 0.089550 0.025400
   vertex -0.370000 0.089550 0.025400
  endloop
 endfacet
 facet normal 0.000000 1.000000 0.000000
  outer loop
   vertex -0.010350 -0.090000 0.177800
   vertex -0.010350 -0.090000 0.025400
   vertex -0.370000 -0.090000 0.177800
  endloop
 endfacet
 facet normal 0.000000 1.000000 0.000000
  outer loop
   vertex -0.370000 -0.090000 0.177800
   vertex -0.010350 -0.090000 0.025400
   vertex -0.370000 -0.090000 0.025400
  endloop
 endfacet
 facet normal -1.000000 0.000000 0.000000
  outer loop
   vertex -0.010350 0.089550 0.177800
   vertex -0.010350 0.089550 0.025400
   vertex -0.010350 -0.090000 0.177800
  endloop
 endfacet
 facet normal -1.000000 0.000000 0.000000
  outer loop
   vertex -0.010350 -0.090000 0.177800
   vertex -0.010350 0.089550 0.025400
   vertex -0.010350 -0.090000 0.025400
  endloop
 endfacet
 facet normal 0.000000 -1.000000 0.000000
  outer loop
   vertex -0.370000 0.089550 0.177800
   vertex -0.370000 0.089550 0.025400
   vertex -0.010350 0.089550 0.177800
  endloop
 endfacet
 facet normal 0.000000 -1.000000 0.000000
  outer loop
   vertex -0.010350 0.089550 0.177800
   vertex -0.370000 0.089550 0.025400
   vertex -0.010350 0.089550 0.025400
  endloop
 endfacet
endsolid bin_large_new_ascii - bin_large_new
